<svg xmlns="http://www.w3.org/2000/svg" viewBox="0 0 753.24 162.73"><defs><style>.cls-1,.cls-2{fill:#eee;}.cls-2{font-size:105px;font-family:Montserrat-SemiBold, Montserrat;font-weight:700;}</style></defs><title>logo</title><g id="Layer_2" data-name="Layer 2"><g id="Layer_1-2" data-name="Layer 1"><g id="qURQ2r"><path class="cls-1" d="M7.92,126.73a89.22,89.22,0,0,0,10-.08c4.26-.49,6.84-4.07,6.84-9,0-11.81,0-23.62,0-35.44a9.69,9.69,0,0,1,.63-3.71c3.46,3.45,7.89,5.82,7.58,11.87-.45,9.12-.24,18.28-.32,27.43-.09,9.75-6.28,16.47-16,17-5.3.28-10.64.05-16.36.05C.17,133.43,0,132.21,0,131Q0,92.94,0,54.9C0,42.63,8.18,34.43,20.49,34.48c3.13,0,4.26-.85,5-4C29.88,11.26,44.24,0,63.91,0q27.61,0,55.24,0h4c3.12,18.65-5.21,34.31-21.62,40.32a38.48,38.48,0,0,1-12.59,2c-17.6.21-35.2.12-52.81,0-2.6,0-3.54.71-3.38,3.37a76.16,76.16,0,0,1,0,11.1c-.26,3,.76,3.76,3.62,3.74,17-.11,34.05-.06,51.08-.07,4.71,0,4.73.07,4.82,4.88.28,15.42-5.92,27.05-19.89,34.17-7.24,3.69-15.11,3.71-22.76,2.71-2.82-.37-5.22-4-7.81-6.11l.49-1.08c1.18-.11,2.35-.25,3.52-.33,6.67-.43,13.47-.16,20-1.44,9.32-1.83,17-11.64,18.11-21.15.29-2.63-.48-3.52-3.14-3.51-14.7.08-29.41,0-44.12,0-8.17,0-11.93-3.67-11.94-11.8,0-3.82-.06-7.65,0-11.47,0-2.09-.76-2.82-2.85-2.89-9.3-.34-14,4.18-14,13.54q0,33.18,0,66.36ZM115.59,8.34c-.42-.19-.62-.36-.83-.36-18.51,0-37-.37-55.53.14-12.41.34-23.64,11.09-25.76,23.11-.35,2-.27,3.12,2.16,3.12,19-.07,38,.21,56.93-.23C105.61,33.82,116.19,21.57,115.59,8.34Z"/></g><text class="cls-2" transform="translate(96.24 134.91)">ILM FINDR</text></g></g></svg>