<svg xmlns="http://www.w3.org/2000/svg" viewBox="0 0 679.63 474.68"><defs><style>.cls-1{fill:#4d4d4d;}</style></defs><title>masks_1</title><g id="Layer_2" data-name="Layer 2"><g id="Layer_2-2" data-name="Layer 2"><path class="cls-1" d="M191.21,432.14c-12.87,0-25.49-4.5-37.49-13.36-5.29-3.92-11.35-8.68-16.13-14.32C121,384.85,104.93,365,89.39,345.73c-13.35-16.51-26.28-33-37.17-46.84-5-6.38-10-13-14.75-19.33l-6.61-8.76c-10.33-15.6-14.81-33.42-13.66-54.41l0-.39c.38-6.82.76-13.87,1.46-20.75,2.33-22.85.4-41.34-6.08-58.2A111.74,111.74,0,0,1,9,125.27c-.32-1.21-.64-2.42-1-3.62C3.49,105-.35,87,2.44,68.2a31.29,31.29,0,0,1,3.5-10.65C10.21,50,17.7,45.81,27.05,45.81a35.7,35.7,0,0,1,5.18.4A381.13,381.13,0,0,0,88.07,50.4a361.78,361.78,0,0,0,121-20.93c7.7-2.73,15.33-6,22.7-9.16,5.23-2.23,10.64-4.55,16-6.65a37.91,37.91,0,0,1,13.75-2.6c13.24,0,25.14,7,31.06,18.16,3.43,6.47,4.78,13.89,4.12,22.65-.73,9.86-2,19.82-3.28,30-2.29,17.74-.85,33.08,4.39,46.9,4.14,10.88,8.86,21.73,13.43,32.22l1.68,3.87c6.22,14.28,12.64,29,15.5,44.69,2.72,14.88,1.25,27.92-4.5,39.89-13.35,27.84-26.75,56.23-39.7,83.68-3.25,6.9-6.51,13.94-9.65,20.75-5.28,11.41-10.73,23.21-16.34,34.68-7.12,14.55-18.67,26.19-34.34,34.59C212.76,429.12,201.77,432.14,191.21,432.14Zm10.28-36.72a10.91,10.91,0,0,0-3.25.5,10.42,10.42,0,0,0-7.06,12.69l.82,3.61,1.93-3.16c3-4.94,5-6.53,8.29-6.53a25.29,25.29,0,0,1,7,1.35l2.86.84-1-2.79A10.07,10.07,0,0,0,201.49,395.42ZM211.66,340c-25,0-48.84,7.3-70.91,21.7l-9.92,6.47,11.22-3.8c2.63-.89,5.25-1.81,7.87-2.73,5.82-2.06,11.85-4.18,17.86-5.86a230.17,230.17,0,0,1,26.85-6,217.39,217.39,0,0,1,27.4-2.33c1.23,0,2.46-.05,3.69-.05,5.12,0,10.35.25,15.41.49,2.81.13,5.63.26,8.44.36l12.92.43L250,345.34A147.05,147.05,0,0,0,211.66,340ZM197.8,253.49c-2.09,0-4.24.07-6.38.2-19.92,1.21-36.76,9.62-47.69,15.85-13.23,8.38-24.28,17.78-32.92,28-8.45,10-12.61,18.69-13.47,28.31s2,17.64,8.45,24.21a21.28,21.28,0,0,0,15.47,6.64h0a29.64,29.64,0,0,0,14.55-4.24,135.28,135.28,0,0,0,13.9-9.35c14.68-10.94,30.49-16.49,47-16.49a86.19,86.19,0,0,1,26,4.23l.53.16A133.16,133.16,0,0,0,242,335.92a35.48,35.48,0,0,0,5.44.44c6.9,0,12.74-2.29,16.88-6.63,4.56-4.77,6.77-11.63,6.39-19.83-.63-13.89-7-26-19.57-36.95C236.4,260,218.45,253.49,197.8,253.49Zm-79.6-28.58c-9.45,3-18,20.63-21.3,28.09-9,20.53-15.44,48.73-9.81,60.57L89,317.51l.94-4.26c.19-.88.4-1.75.6-2.62.44-1.89.89-3.84,1.25-5.79,4.31-23.67,11.09-44.73,20.71-64.4,1.41-2.87,3-5.7,4.79-8.69.87-1.49,1.77-3,2.69-4.67l1.86-3.3Zm101.35-9a173.49,173.49,0,0,1,29.37,34.94c5.83,9.08,11.22,18.45,16.44,27.51,2.24,3.88,4.44,7.7,6.63,11.42l2.26,3.83.52-4.42c2.54-21.42-33.77-72.48-54-75.88l-5.05-.85Zm-79.29,29c4.09,0,8.08,1.65,12.29,3.4l.24.1a48.4,48.4,0,0,0,14.9,3.73c.39,0,.78,0,1.17,0,6.61,0,11.84-3.77,16.9-7.42l.43-.31c3.58-2.58,7.63-5.5,11.72-8.26a11.47,11.47,0,0,1,6.61-2.08,19.62,19.62,0,0,1,8.06,2.08l1.08.49,2.39-3.07-1-.93c-.32-.32-.62-.66-.93-1a10.52,10.52,0,0,0-2.67-2.37,19.9,19.9,0,0,0-9.85-2.65,26.47,26.47,0,0,0-12.54,3.55c-3.36,1.79-6.58,3.9-9.71,5.93-1.17.77-2.35,1.54-3.53,2.29a18.16,18.16,0,0,1-9.94,3,21.29,21.29,0,0,1-7-1.27c-4.44-1.56-9.48-3.32-14.87-3.32a23.73,23.73,0,0,0-3.39.24c-5,.71-8.47,3.3-9.3,6.93l-.27,1.17,1.08.51.15.09a2.37,2.37,0,0,0,1.33.49H134l.36-.15A14.37,14.37,0,0,1,140.26,244.91Zm-3-107.12c-3.59,7.94-10.45,17.91-31.9,24.58-4,1.25-8.21,2.4-12.24,3.51-6.68,1.85-13.59,3.75-20.2,6.22-13,4.84-22.44,14.58-27.38,28.15a30.36,30.36,0,0,0-1.3,5.94c-.14.87-.27,1.73-.43,2.59l-.74,3.8,3.11-2.31c10.33-7.7,21.2-11.44,33.23-11.44.9,0,1.82,0,2.74.06,3.78.18,7.08.26,10.09.26,3.27,0,6.26-.1,9.13-.29,12-.82,21.56-6.75,28.56-17.61,5-7.79,8-17.07,9.32-29.22.48-4.35.76-8.8.87-13.59l.18-7.39Zm-1.82-36.53c-2.24,2.4-4.56,4.89-6.81,7.37-10.55,11.61-23.53,20-39.7,25.74-23.58,8.33-41.11,23.16-52.12,44.08a44.47,44.47,0,0,0-5.36,25L32,210l2.3-6.14c.15-.4.31-.8.47-1.19a25.07,25.07,0,0,0,1-2.84c5.07-18.41,17.52-31.89,38.08-41.2q3.66-1.67,7.35-3.28c9.62-4.27,19.56-8.69,28.73-14.14,15-8.91,25.29-21.62,30.69-37.79.29-.87.52-1.74.74-2.59.11-.39.21-.78.32-1.17l.32-1.14L139.36,97S136.48,100.14,135.43,101.26ZM177,131.4c.55,1.55,1.09,3.11,1.62,4.66,1.18,3.43,2.4,7,3.75,10.42A67.39,67.39,0,0,0,196,168.64c7.88,8.33,16.81,12.56,26.55,12.56h0a37.14,37.14,0,0,0,6.4-.58,160.67,160.67,0,0,0,22.13-5.37,48.12,48.12,0,0,1,15.07-2.45,54.92,54.92,0,0,1,19.13,3.63c.48.18.94.39,1.49.64l1,.47,2.48,1.09-.39-2.69c-.9-6-4.36-10.13-7.27-13-11.54-11.47-26.07-16.83-45.72-16.85a240.84,240.84,0,0,1-32.37-2A37.76,37.76,0,0,1,179.61,130l-5.5-6.83ZM157.21,94.85l1.65,2.33c.49.68,1,1.38,1.43,2.07a50.19,50.19,0,0,0,3.37,4.61c7.09,8.39,16.65,14.39,28.42,17.85,6.92,2,14,3.71,20.94,5.34,4.27,1,8.68,2,13,3.16l6.79,1.72c8.63,2.19,17.55,4.44,26.1,7.27,11.08,3.68,20.88,11,29.11,21.83a17.48,17.48,0,0,0,1.45,1.61l1.19,1.25,4.17,4.48-1.63-5.9c-2.77-10-8-18.42-16.59-26.36a70.45,70.45,0,0,0-29.5-16.75l-.83-.23c-10.34-2.82-21-5.73-31.79-6.63-19.66-1.65-36.26-7.09-50.73-16.63a6,6,0,0,0-3.55-1.06Z"/><path d="M261.51,12.56c12.68,0,24.07,6.65,29.74,17.36,3.28,6.22,4.58,13.36,3.95,21.84-.73,9.83-2,19.76-3.28,29.93-2.32,18-.86,33.57,4.48,47.62,4.15,10.93,8.88,21.8,13.46,32.31l1.33,3,.35.81c6.18,14.21,12.57,28.89,15.39,44.36,2.66,14.55,1.23,27.3-4.37,39-13.42,28-26.78,56.3-39.7,83.69-2.81,6-5.62,12-8.36,17.93l-24.1-6.53a148.75,148.75,0,0,0-38.74-5.38c-25.27,0-49.41,7.38-71.73,21.94l-19.85,12.94,22.45-7.59c2.64-.89,5.3-1.83,7.88-2.73,5.8-2.05,11.81-4.17,17.77-5.83a227.41,227.41,0,0,1,26.68-5.94A218.09,218.09,0,0,1,222.07,349c1.17,0,2.4,0,3.65,0,5.08,0,10.29.25,15.33.49,2.77.13,5.64.26,8.47.36l24.89.83-1.22,2.64c-5.27,11.4-10.72,23.19-16.32,34.64-7,14.26-18.31,25.67-33.7,33.93-10.9,5.85-21.65,8.81-32,8.81-12.54,0-24.86-4.4-36.6-13.07-5.22-3.86-11.19-8.55-15.87-14.08-16.58-19.59-32.65-39.47-48.19-58.7C77.21,328.29,64.28,311.86,53.4,298c-5-6.36-9.95-12.95-14.74-19.31q-3.27-4.35-6.55-8.67C22,254.59,17.56,237.09,18.7,216.47l0-.39c.37-6.8.76-13.83,1.46-20.68,2.35-23.09.38-41.8-6.18-58.88a112,112,0,0,1-3.51-11.62c-.32-1.22-.64-2.44-1-3.65C5,104.74,1.17,86.92,3.93,68.42A30,30,0,0,1,7.25,58.29c4-7.18,10.89-11,19.8-11a34.07,34.07,0,0,1,5,.38A382.65,382.65,0,0,0,88.07,51.9a363.2,363.2,0,0,0,121.48-21c7.74-2.74,15.39-6,22.79-9.19,5.22-2.23,10.62-4.54,16-6.63a36.22,36.22,0,0,1,13.2-2.5m36.38,161.31-3.26-11.8c-2.84-10.32-8.25-18.92-17-27.06a72,72,0,0,0-30.13-17.1l-.83-.22c-10.4-2.84-21.16-5.78-32-6.69-19.41-1.62-35.78-7-50-16.38a7.38,7.38,0,0,0-4.37-1.31H160l-5.69.09,3.3,4.64c.48.68.94,1.37,1.41,2.06a54.74,54.74,0,0,0,3.46,4.73c7.29,8.62,17.09,14.78,29.14,18.31,7,2,14.12,3.74,21,5.37,4.26,1,8.66,2,13,3.15l6.8,1.73c8.6,2.17,17.49,4.42,26,7.24,10.79,3.57,20.34,10.75,28.39,21.31a18.21,18.21,0,0,0,1.56,1.74l1.17,1.23,8.34,9M31.14,216.65l4.6-12.27c.15-.39.31-.77.46-1.16a26.34,26.34,0,0,0,1.08-3c5-18.21,16.84-31,37.25-40.24l7.34-3.28c9.66-4.28,19.64-8.71,28.89-14.21,15.28-9.1,25.82-22.08,31.34-38.6.3-.92.54-1.82.78-2.7l.3-1.13.65-2.3-2.1-1.14-.31-.17-.31-.17-2.05-1.13-1.59,1.72-3.13,3.36c-2.25,2.41-4.57,4.9-6.83,7.39C117.13,119,104.35,127.33,88.42,133c-23.94,8.46-41.76,23.53-52.95,44.79A46,46,0,0,0,30,203.6l1.19,13.05m191.42-34a38.33,38.33,0,0,0,6.68-.61,159.61,159.61,0,0,0,22.33-5.42,46.87,46.87,0,0,1,14.6-2.37,53.39,53.39,0,0,1,18.61,3.54c.41.15.84.35,1.38.6l1.06.47,5,2.18-.79-5.37c-1-6.47-4.61-10.81-7.69-13.87-11.68-11.6-27-17.26-46.78-17.28a238,238,0,0,1-32.17-1.94,36.29,36.29,0,0,1-24-13.62l-11-13.65,5.85,16.54q.81,2.31,1.61,4.65c1.19,3.44,2.41,7,3.78,10.48a68.88,68.88,0,0,0,13.91,22.64c8.17,8.64,17.47,13,27.64,13M40.85,216.1l6.21-4.63C57.13,204,67.7,200.33,79.4,200.33c.88,0,1.78,0,2.67.06,3.8.18,7.13.26,10.16.26,3.31,0,6.33-.1,9.23-.3,12.45-.85,22.45-7,29.73-18.29,5.14-8,8.18-17.48,9.54-29.87.48-4.39.77-8.88.88-13.72L142,123.7l-6.08,13.47c-5.2,11.52-14.46,18.63-31,23.76-4,1.25-8.17,2.4-12.18,3.51-6.72,1.85-13.66,3.76-20.34,6.26-13.39,5-23.16,15-28.25,29A31.62,31.62,0,0,0,42.74,206c-.13.88-.26,1.71-.41,2.52l-1.48,7.61m234.36,82.09,1.05-8.84c1.42-12-8.6-31.27-18.45-45.35-19.15-27.35-33-31.55-36.76-32.19l-10.11-1.7,7.6,6.89a171.7,171.7,0,0,1,29.11,34.64c5.81,9.05,11.2,18.39,16.4,27.43,2.29,4,4.45,7.72,6.65,11.45l4.51,7.67M89.49,322.09l1.88-8.52L92,311c.44-1.9.9-3.86,1.26-5.85,4.29-23.53,11-44.47,20.59-64,1.38-2.82,3-5.62,4.74-8.59.87-1.49,1.77-3,2.7-4.69l3.71-6.6-7.22,2.26c-9.67,3-18.08,19.42-22.22,28.92A161.21,161.21,0,0,0,85,286.51c-1.56,8.64-2.7,20.46.75,27.7l3.75,7.88M165.92,240a19.55,19.55,0,0,1-6.48-1.19c-4.56-1.6-9.72-3.4-15.37-3.4a25.36,25.36,0,0,0-3.61.25c-5.62.81-9.57,3.83-10.54,8.08l-.54,2.34,2.09,1,.06,0a3.92,3.92,0,0,0,2.14.72,3.17,3.17,0,0,0,1.29-.27,12.8,12.8,0,0,1,5.3-1.14c3.8,0,7.64,1.59,11.72,3.28l.24.1a49.66,49.66,0,0,0,15.36,3.84c.43,0,.86.05,1.28.05,7.09,0,12.77-4.1,17.78-7.71l.42-.3c4.32-3.11,7.92-5.69,11.69-8.24a10,10,0,0,1,5.77-1.82,18.29,18.29,0,0,1,7.43,1.94l2.16,1,1.46-1.87.42-.54.42-.54,1.65-2.11-1.92-1.88c-.28-.26-.56-.58-.86-.91a12,12,0,0,0-3.05-2.68,21.38,21.38,0,0,0-10.59-2.84,27.92,27.92,0,0,0-13.24,3.72c-3.42,1.83-6.67,4-9.82,6-1.17.76-2.34,1.52-3.52,2.27a16.7,16.7,0,0,1-9.14,2.81M121.26,358.16a31,31,0,0,0,15.29-4.44,136.18,136.18,0,0,0,14.06-9.45c14.41-10.74,29.92-16.19,46.08-16.19a84.83,84.83,0,0,1,25.52,4.16l.54.17a133.82,133.82,0,0,0,19,5,36.11,36.11,0,0,0,5.68.46c7.31,0,13.53-2.45,18-7.1,4.84-5.07,7.19-12.31,6.8-20.93-.65-14.32-7.22-26.75-20.08-38-15-13.16-33.32-19.83-54.35-19.83-2.11,0-4.29.07-6.46.2-20.23,1.23-37.28,9.75-48.34,16l-.07,0-.06,0c-13.29,8.43-24.46,17.92-33.19,28.22-5.38,6.34-12.67,16.26-13.83,29.14-.89,9.95,2.1,18.5,8.88,25.4a22.77,22.77,0,0,0,16.54,7.09m70.1,58,3.85-6.3c3-5,4.62-5.82,7-5.82a24.34,24.34,0,0,1,6.54,1.28l5.7,1.7-2-5.6a11.59,11.59,0,0,0-10.94-7.49,12.26,12.26,0,0,0-3.7.57c-6.23,2-9.55,7.92-8.07,14.46l1.64,7.2M261.51,9.56a39.18,39.18,0,0,0-14.29,2.71c-13,5.06-25.56,11.14-38.68,15.78A358.53,358.53,0,0,1,88.07,48.9a377.23,377.23,0,0,1-55.62-4.18,37.4,37.4,0,0,0-5.4-.41c-9.74,0-17.77,4.26-22.42,12.51A33,33,0,0,0,1,68c-2.75,18.47.8,36.36,5.66,54.07,1.43,5.21,2.65,10.51,4.58,15.54,7.17,18.66,8,37.91,6,57.51-.72,7.05-1.1,14.13-1.49,21.21-1.09,19.89,2.78,38.5,14,55.4,7.12,9.37,14.12,18.84,21.37,28.1q18.45,23.55,37.19,46.87c15.93,19.7,31.87,39.41,48.23,58.75C141.12,411,147,415.65,152.83,420c12.45,9.2,25.28,13.66,38.38,13.66,10.95,0,22.09-3.11,33.38-9.17,15.21-8.16,27.35-19.66,35-35.25,9-18.33,17.3-37,26-55.45q19.76-41.88,39.7-83.67c6.3-13.14,7.18-26.74,4.61-40.81-2.94-16.1-9.47-30.94-15.94-45.82-5.08-11.67-10.22-23.33-14.73-35.22-5.67-14.92-6.35-30.44-4.31-46.18,1.29-10,2.54-20,3.29-30.08.6-8.1-.42-16.15-4.29-23.47-6.33-12-19-19-32.39-19Zm30.23,153.31c-1.31-1.41-2-2-2.53-2.75-7.83-10.28-17.56-18.27-29.84-22.34-10.81-3.58-21.94-6.18-33-9-11.28-2.91-22.73-5.21-33.89-8.48-10.74-3.16-20.32-8.66-27.7-17.38-1.74-2-3.15-4.38-4.72-6.58h.12a4.51,4.51,0,0,1,2.72.81c15.62,10.3,32.78,15.31,51.44,16.87,10.9.92,21.72,3.92,32.34,6.82a68.85,68.85,0,0,1,28.87,16.4c7.39,6.86,13.17,14.76,16.17,25.66ZM32.94,203.33a42.76,42.76,0,0,1,5.19-24.18c11.23-21.34,28.93-35.46,51.29-43.37,15.71-5.55,29.17-13.88,40.31-26.15,3.28-3.6,6.62-7.15,9.94-10.72l.62.34c-.34,1.23-.63,2.48-1,3.69a66.9,66.9,0,0,1-30,37c-11.39,6.77-23.81,11.85-35.93,17.34-19,8.6-33.19,21.41-38.9,42.17-.37,1.34-1,2.61-1.45,3.91ZM222.56,179.7c-9.91,0-18.32-4.54-25.46-12.09a66.36,66.36,0,0,1-13.3-21.67c-2-4.95-3.58-10-5.35-15a39.36,39.36,0,0,0,25.9,14.7,240.86,240.86,0,0,0,32.57,2c17,0,32.3,4.13,44.66,16.41,3.31,3.29,6.07,7,6.84,12.18-1.09-.48-1.83-.85-2.6-1.13a56.4,56.4,0,0,0-19.65-3.73,49.47,49.47,0,0,0-15.54,2.52,159.5,159.5,0,0,1-21.92,5.32,34.64,34.64,0,0,1-6.15.56ZM45.27,209.07c.54-2.78.72-5.68,1.67-8.3,4.74-13,13.62-22.46,26.49-27.26C84,169.58,95,167.14,105.8,163.8c14-4.36,26.33-11,32.81-25.4-.1,4.52-.37,9-.86,13.46-1.12,10.13-3.48,19.88-9.09,28.58-6.43,10-15.41,16.1-27.4,16.92-3,.21-6,.29-9,.29-3.34,0-6.69-.1-10-.25-.95-.05-1.88-.07-2.81-.07-12.41,0-23.54,3.85-34.13,11.74Zm228,79.93c-7.29-12.39-14.75-26-23.1-39a174.11,174.11,0,0,0-29.63-35.25c20.14,3.39,55.08,54.42,52.73,74.23ZM118.64,226.35c-2.81,5-5.39,9.1-7.51,13.43a247.66,247.66,0,0,0-20.85,64.79c-.51,2.8-1.22,5.57-1.83,8.35-8.69-18.23,13.17-81.25,30.19-86.57ZM165.92,243a19.67,19.67,0,0,0,10.74-3.28c4.36-2.76,8.61-5.73,13.15-8.16a25.24,25.24,0,0,1,11.83-3.37,18.42,18.42,0,0,1,9.12,2.45c1.28.72,2.2,2.07,3.28,3.13l-.84,1.08a21.11,21.11,0,0,0-8.68-2.22,13,13,0,0,0-7.45,2.33c-4,2.69-7.87,5.49-11.76,8.29-5,3.61-10.15,7.45-16.45,7.45-.35,0-.71,0-1.07,0A46.88,46.88,0,0,1,153.36,247c-4.37-1.81-8.62-3.61-13.1-3.61a15.85,15.85,0,0,0-6.51,1.39l-.08,0c-.22,0-.56-.3-.83-.43.71-3.08,3.89-5.18,8-5.78a23,23,0,0,1,3.18-.22c5,0,9.7,1.6,14.38,3.23a22.39,22.39,0,0,0,7.47,1.36ZM121.26,355.16a19.73,19.73,0,0,1-14.4-6.19c-6.25-6.35-8.82-14.16-8-23,1-10.77,6.4-19.55,13.13-27.47,9.46-11.16,20.82-20.21,32.51-27.63,13.46-7.66,29.05-14.56,47-15.66,2.11-.13,4.21-.19,6.28-.19,19.56,0,37.22,5.83,52.37,19.09,10.8,9.45,18.39,21,19.07,35.88.69,15.22-8,24.9-21.78,24.9a32.86,32.86,0,0,1-5.21-.43c-6.48-1-12.84-3.07-19.13-5.05a87.49,87.49,0,0,0-26.42-4.3q-25.33,0-47.88,16.78a131.51,131.51,0,0,1-13.74,9.25,28.18,28.18,0,0,1-13.81,4.05Zm20.31,7.8c22.27-14.52,45.68-21.45,70.09-21.45a145.1,145.1,0,0,1,38,5.28c-8-.27-15.94-.85-23.9-.85-1.24,0-2.48,0-3.73.05a217.87,217.87,0,0,0-27.59,2.35,229.93,229.93,0,0,0-27,6c-8.73,2.43-17.22,5.71-25.81,8.61Zm51.08,45.32c-1.16-5.09,1.39-9.46,6-10.93a9.38,9.38,0,0,1,2.8-.43,8.55,8.55,0,0,1,8.12,5.52,27,27,0,0,0-7.39-1.41c-4.06,0-6.44,2.12-9.57,7.25Z"/><g id="cVT5bW.tif"><path class="cls-1" d="M426,472.68c-15.42,0-30.62-5.79-45.18-17.21-15.4-12.07-26.09-28.17-32.7-49.21-3.25-10.35-6.42-20.93-9.48-31.17-3.14-10.49-6.39-21.35-9.74-32-9.85-31.31-20.23-63.37-29.39-91.66-6.18-19.1-4.92-37.72,3.74-55.34,6.15-12.51,13.26-24.85,20.14-36.78q1.89-3.27,3.77-6.55c2.08-3.61,4.27-7.25,6.38-10.77,6.17-10.26,12.55-20.86,17-32.39a112.23,112.23,0,0,0,7.61-41.09c.06-11.59.28-23.88,2.3-35.64C364.37,10.09,382.76,2,397.31,2a42.61,42.61,0,0,1,21,5.51c4.8,2.73,9.66,5.57,14.35,8.32,9.71,5.69,19.76,11.57,30,16.8,26.59,13.64,55.34,23.93,87.9,31.45a409.77,409.77,0,0,0,92.11,10.37c2.56,0,5.16,0,7.74-.07h.53A26.46,26.46,0,0,1,669.81,82a27.59,27.59,0,0,1,7.82,19.81c0,16.39-3.44,31.16-12.51,54.48-.83,1.86-1.77,4-2.8,6.38-2.68,6.16-6,13.82-9.68,21.24-5.81,11.72-8.51,24.49-8.25,39.05.11,6.87.42,13.83.72,20.56.31,6.93.63,14.09.74,21.13.26,16.91-2.85,29.45-9.78,39.45a70.22,70.22,0,0,1-14.59,15.82c-21.68,16.69-41.48,36-60.64,54.62-7.75,7.55-15.77,15.36-23.79,22.87l-12.7,11.93c-14,13.13-28.39,26.7-42.82,39.76-5.79,5.24-12.78,9.52-18.23,12.67C450.77,469,438.2,472.68,426,472.68Zm-13.79-27.41c2.37,0,4.35,1.26,8.49,5.38l3.59,3.58-.18-5.07c-.25-6.74-4.51-11.71-10.61-12.37-.5-.05-1-.08-1.5-.08a11.54,11.54,0,0,0-11.64,9.35l-.86,4,3.67-1.73C407.08,446.43,410,445.27,412.16,445.27Zm-35.52-78c9.43,24.59,27,40.19,52.17,46.36a79.81,79.81,0,0,0,19,2.38c17.62,0,33.9-6.45,48.38-19.16l11.55-10.14L494,393.52c-14.4,7.16-28.73,10.79-42.57,10.79a82.92,82.92,0,0,1-19.92-2.45c-20.48-5.08-37.27-17-51.33-36.51l-9-12.47Zm-5.28-111.47A148.27,148.27,0,0,0,374,305.34c6,26.16,16.1,46.47,31,62.11,11.63,12.24,23.88,18.18,37.44,18.18h.17c18.57-.06,35.5-5.1,50.3-15,15.15-10.11,28.27-23.76,41.29-43,3.78-5.57,7.33-11.13,11.1-17l2.27-3.56c.68,9.57-2.72,18.39-7.16,28.57L537.2,343l6.29-5a39.79,39.79,0,0,0,11.15-48.94c-5.36-10.92-17.83-20.15-27.24-20.15a12.91,12.91,0,0,0-3,.34l-5.1,1.21L524,273c11.39,6.15,18.32,13.76,21.66,23.87a140.58,140.58,0,0,1-42.06,6.25c-48.44,0-98-22.91-123.92-57.15,4.87-4.88,11.49-6.72,18.46-8.67,1.83-.51,3.72-1,5.6-1.62l3.76-1.17-3.16-2.35c-2.05-1.52-4.9-2.3-8.46-2.3-9.78,0-23,5.92-29.48,13.19-11.91,13.38-13.31,34.88-3,46l4.75,5.12-1.32-6.86C364.46,275.17,365.9,265,371.36,255.76Zm60-.51c2.19,0,4.21,1.35,6.56,4.37,1.15,1.49,2.17,3.08,3.24,4.77l.64,1c6.66,10.4,15.36,15.89,25.17,15.89,5.57,0,11.49-1.75,17.59-5.2,3.45-2,5.95-2.83,8.11-2.83,2.64,0,5.23,1.29,8.95,4.46a3.75,3.75,0,0,0,1.72.76,2.22,2.22,0,0,1,.41.1l3.28,1-.73-3.36c-1.6-7.39-6.36-11.8-12.75-11.8a15.29,15.29,0,0,0-2.11.15A54.53,54.53,0,0,0,476.59,269a19.58,19.58,0,0,1-8.1,1.9,17.64,17.64,0,0,1-9.64-3,48.17,48.17,0,0,1-7.09-5.93c-.62-.59-1.24-1.18-1.87-1.76-1.26-1.16-2.5-2.42-3.7-3.63a72.75,72.75,0,0,0-6-5.69,11.48,11.48,0,0,0-7.21-2.75c-4,0-7.79,2.4-10.67,6.76l-5.1,7.71,7.83-4.92C427.58,256,429.67,255.25,431.37,255.25Zm110.9-52.12a88.41,88.41,0,0,1,44,12,159.57,159.57,0,0,1,14.26,9.59c2.17,1.57,4.41,3.2,6.7,4.78l4.25,3-1.16-5c-4.55-19.71-11.85-42.09-31.54-58.57a35.15,35.15,0,0,0-23.2-8.3,44.22,44.22,0,0,0-5.09.3c-14.75,1.71-26.71,9.46-35.56,23a83.52,83.52,0,0,0-6.78,13.95c-.34.83-.68,1.65-1,2.48-1.08,2.57-.41,4.2.08,4.94a3.86,3.86,0,0,0,3.32,1.66,6.42,6.42,0,0,0,1.91-.32c8.92-2.89,17.95-3.49,28.77-3.49Zm51.24-80.5c6.21,0,12.19,2.52,17.78,7.48,7.14,6.34,11.91,14.93,15,27,1.38,5.44,2.54,11.07,3.65,16.5.51,2.48,1,4.95,1.55,7.42l2.13,9.92,1.79-10c3.09-17.22,2.56-31.13-1.68-43.76-6.61-19.75-21.83-31.53-40.71-31.53a50,50,0,0,0-19.41,4.12c-2.24,1-4.45,2-6.58,3-2.55,1.23-5.19,2.5-7.83,3.54a68.58,68.58,0,0,1-12.85,3.89,20.58,20.58,0,0,1-3.43.3,13.62,13.62,0,0,1-10.21-4.17c-3.34-3.46-4-7.74-1.92-13.47L533,96.72l-5.31,4c-.3.23-.54.39-.72.52a5.12,5.12,0,0,0-1,.84,16.93,16.93,0,0,0-3.94,14,20.76,20.76,0,0,0,10.11,14.44,30.76,30.76,0,0,0,16.13,4.4,47.55,47.55,0,0,0,15.08-2.76c4-1.35,8.06-2.93,11.94-4.46,2.92-1.14,5.94-2.33,8.93-3.4A27.57,27.57,0,0,1,593.51,122.63ZM382.74,160.44a99.2,99.2,0,0,1,36.42,7.19c13.44,5.3,23.39,11.7,31.35,20.13a6,6,0,0,0,4.16,1.7,4.68,4.68,0,0,0,.76-.06c1.95-.34,3.07-3,3.15-4.31.1-1.9.27-3.86.43-5.75.44-5.08.88-10.33.26-15.48-2.23-18.25-11.52-31.74-26.16-38a46,46,0,0,0-16.4-3.23,43.87,43.87,0,0,0-15.56,3c-15.53,5.81-29.43,15.64-43.75,30.94a4.79,4.79,0,0,0-1.06,3c0,.25,0,.51-.1.74l-.46,2.15,2.19.25.65.12a8.06,8.06,0,0,0,1.64.21,4.19,4.19,0,0,0,.95-.1A94.8,94.8,0,0,1,382.74,160.44ZM411,59.61c-13.07,0-24.88,5.8-35.11,17.25-9.76,10.92-14.25,24.52-17.36,36.38a5.25,5.25,0,0,0,0,2.05c0,.31.08.67.11,1.12l.32,4.78,3.18-3.59c.34-.39.65-.71.91-1a11.66,11.66,0,0,0,1.39-1.66c1-1.53,2-3.08,3-4.62,1.54-2.43,3.14-4.95,4.78-7.34,6.37-9.27,13.8-18.52,24.91-23.42a32.22,32.22,0,0,1,12.91-3c6.32,0,12,2.36,17.46,7.2,1.13,1,2.24,2,3.34,3.07,1.69,1.56,3.43,3.17,5.22,4.7,1.11.94,2.21,1.9,3.3,2.86a81.32,81.32,0,0,0,10.49,8.26c6.22,3.88,12.06,5.77,17.86,5.77h0a26.86,26.86,0,0,0,12-2.91A18.43,18.43,0,0,0,489,94.78a15,15,0,0,0-.73-11.62l-1.84-3.52-1.73,3.57c0,.09-.09.16-.13.24a3.81,3.81,0,0,0-.53,1.32c-1.15,7-5.34,11.24-11.2,11.24a15.29,15.29,0,0,1-5.17-1c-4-1.46-8.23-4.15-13.24-8.47a116.39,116.39,0,0,1-8.69-8.66c-2-2.16-4.12-4.4-6.31-6.49-6.59-6.33-13.36-10-20.7-11.17A48.54,48.54,0,0,0,411,59.61Z"/><path d="M397.31,4a40.57,40.57,0,0,1,20,5.25c4.8,2.72,9.64,5.56,14.33,8.31,9.74,5.7,19.81,11.6,30.05,16.85C488.42,48.13,517.32,58.47,550,66a412.12,412.12,0,0,0,92.57,10.42c2.57,0,5.19,0,7.77-.07h.5a24.48,24.48,0,0,1,17.51,7,25.62,25.62,0,0,1,7.24,18.4c0,16.11-3.4,30.67-12.35,53.71-.84,1.86-1.79,4-2.79,6.35-2.67,6.13-6,13.77-9.64,21.15-6,12-8.72,25.09-8.46,40,.11,6.9.42,13.87.73,20.62.3,6.91.62,14.06.73,21.07.26,16.7-2.65,28.51-9.43,38.29a68.13,68.13,0,0,1-14.16,15.36c-21.77,16.76-41.62,36.09-60.81,54.78-7.75,7.54-15.76,15.34-23.77,22.84q-6.37,6-12.74,12C509,421,494.59,434.59,480.18,447.63c-5.64,5.12-12.52,9.32-17.88,12.41-12.22,7.06-24.46,10.64-36.35,10.64-15,0-29.74-5.65-43.95-16.78-15.07-11.82-25.54-27.6-32-48.23-3.25-10.35-6.41-20.92-9.47-31.14-3.15-10.51-6.4-21.37-9.75-32-9.85-31.29-20.23-63.37-29.39-91.68-6-18.58-4.8-36.7,3.63-53.84,6.11-12.45,13.21-24.75,20.07-36.65l3.78-6.56c2.06-3.6,4.24-7.23,6.35-10.74,6.21-10.32,12.64-21,17.2-32.69a114.39,114.39,0,0,0,7.74-41.81c.06-11.5.27-23.71,2.27-35.31C366.13,11.66,383.54,4,397.31,4m-40,122.1,6.35-7.17.88-1a13.84,13.84,0,0,0,1.61-1.93c1-1.55,2-3.13,3-4.65,1.53-2.41,3.12-4.91,4.74-7.28,6.2-9,13.41-18,24.07-22.72A30.35,30.35,0,0,1,410,78.56c5.81,0,11.09,2.19,16.13,6.69,1.1,1,2.22,2,3.31,3,1.7,1.58,3.46,3.21,5.29,4.76,1.09.93,2.2,1.9,3.27,2.84a84,84,0,0,0,10.75,8.46c6.45,4,12.82,6.07,18.92,6.07a29,29,0,0,0,12.91-3.11A20.49,20.49,0,0,0,490.91,95.4a16.88,16.88,0,0,0-.86-13.16l-3.65-7-3.48,7.13-.08.13a5.83,5.83,0,0,0-.76,2c-1,6.07-4.36,9.55-9.23,9.55a13.32,13.32,0,0,1-4.49-.86c-3.79-1.37-7.8-4-12.61-8.11a110.47,110.47,0,0,1-8.54-8.51c-2-2.18-4.16-4.43-6.38-6.57-6.9-6.61-14-10.44-21.77-11.69a50.23,50.23,0,0,0-8-.66c-13.67,0-26,6-36.6,17.92-10,11.23-14.64,25.11-17.8,37.2a6.88,6.88,0,0,0-.08,2.8c0,.28.07.61.1,1l.63,9.56m191,10.87A49.51,49.51,0,0,0,564,134.11c4.09-1.37,8.13-3,12-4.49,2.91-1.15,5.91-2.33,8.87-3.39a25.64,25.64,0,0,1,8.62-1.6c5.78,0,11.16,2.28,16.45,7,6.83,6.07,11.4,14.34,14.38,26.05,1.37,5.39,2.52,11,3.63,16.4.5,2.44,1,5,1.56,7.44l4.26,19.83,3.58-20c3.15-17.56,2.6-31.78-1.75-44.75-3.38-10.08-9.13-18.44-16.62-24.18a42.34,42.34,0,0,0-26-8.71A51.9,51.9,0,0,0,572.82,108c-2.28,1-4.51,2-6.67,3.08-2.63,1.28-5.12,2.48-7.69,3.49A66.47,66.47,0,0,1,546,118.35a18.72,18.72,0,0,1-3.09.27,11.65,11.65,0,0,1-8.77-3.56c-1.88-1.94-3.74-5-1.48-11.41l4.43-12.52-10.6,8-.68.49a7.1,7.1,0,0,0-1.34,1.15,18.88,18.88,0,0,0-4.41,15.69,22.69,22.69,0,0,0,11.06,15.84A33.19,33.19,0,0,0,548.27,137m-188,28.09a5.89,5.89,0,0,0,1.4-.16,93.1,93.1,0,0,1,21.08-2.46,97,97,0,0,1,35.69,7.06c13.15,5.18,22.88,11.42,30.62,19.63a8,8,0,0,0,5.62,2.33,6.5,6.5,0,0,0,1.09-.09c3.08-.53,4.69-4,4.81-6.17.11-1.87.27-3.81.43-5.69.45-5.18.91-10.54.25-15.89-2.32-19-12-33.05-27.35-39.6l-.08,0-.09,0a47.72,47.72,0,0,0-17-3.33,45.87,45.87,0,0,0-16.26,3.14c-15.83,5.92-30,15.92-44.52,31.45a6.73,6.73,0,0,0-1.58,4.17c0,.17,0,.43-.06.52l-.93,4.3,4.38.51.48.09a9.77,9.77,0,0,0,2,.25m150.28,43.87a8.16,8.16,0,0,0,2.52-.42c8.68-2.81,17.53-3.39,28.15-3.39h1.06a86.41,86.41,0,0,1,43,11.78,156.34,156.34,0,0,1,14.08,9.47c2.17,1.58,4.43,3.21,6.73,4.81l8.5,5.89L612.28,227c-4.62-20-12-42.79-32.19-59.66a37.19,37.19,0,0,0-24.5-8.76,45.78,45.78,0,0,0-5.31.31c-15.37,1.79-27.82,9.84-37,23.92a84,84,0,0,0-7,14.28l-1,2.47c-1.44,3.43-.46,5.74.25,6.82a5.87,5.87,0,0,0,5,2.55M370.91,300.14q.54,2.83,1.18,5.65c6.05,26.51,16.34,47.13,31.46,63,12,12.65,24.75,18.8,38.89,18.8h.17A91.54,91.54,0,0,0,494,372.32c15.37-10.26,28.67-24.09,41.84-43.53,3.23-4.76,6.29-9.51,9.45-14.46-.9,6.63-3.54,13.21-6.73,20.53l-6.43,14.75,12.59-10a41.79,41.79,0,0,0,11.69-51.39c-5.75-11.73-18.77-21.27-29-21.27a14.63,14.63,0,0,0-3.42.39l-10.2,2.44,9.22,5c10.16,5.49,16.61,12.16,20,20.81a139,139,0,0,1-39.45,5.55,166.88,166.88,0,0,1-71.08-16.33C412,275,394.34,261.42,382.33,246.17c4.34-3.63,9.95-5.2,16.3-7,1.84-.51,3.75-1,5.66-1.64l7.5-2.34-6.31-4.69c-2.4-1.79-5.65-2.7-9.65-2.7-10.45,0-24.06,6.09-31,13.86-12.56,14.1-13.95,36.86-3,48.71l9,9.74m39.49-31,15.67-9.83c2.22-1.4,4-2.1,5.3-2.1,1,0,2.5.41,5,3.6,1.1,1.41,2.08,3,3.13,4.6l.65,1c7,11,16.33,16.81,26.85,16.81,5.92,0,12.17-1.84,18.57-5.46,3.14-1.78,5.33-2.57,7.13-2.57,2.12,0,4.33,1.15,7.65,4a5.78,5.78,0,0,0,2.58,1.19l.25.05,6.56,2.07-1.45-6.73c-1.82-8.37-7.31-13.37-14.71-13.37a16.3,16.3,0,0,0-2.39.17,56.58,56.58,0,0,0-15.41,4.52,17.62,17.62,0,0,1-7.27,1.72,15.74,15.74,0,0,1-8.57-2.69,46.9,46.9,0,0,1-6.77-5.68l-1.91-1.79c-1.22-1.13-2.39-2.31-3.62-3.57a75.37,75.37,0,0,0-6.21-5.83,13.44,13.44,0,0,0-8.47-3.2c-4.69,0-9.07,2.71-12.34,7.65l-10.2,15.43M447.78,418c18.12,0,34.84-6.62,49.7-19.66L520.58,378l-27.52,13.69c-14.32,7.12-28,10.58-41.68,10.58a80.59,80.59,0,0,1-19.44-2.4c-20-5-36.42-16.64-50.19-35.73l-18-24.93,11,28.7c9.68,25.24,27.7,41.25,53.57,47.59A82.13,82.13,0,0,0,447.78,418m-51.15,35.6L404,450.1c3.61-1.7,6.38-2.83,8.2-2.83,1.49,0,3,.74,7.07,4.8l7.19,7.16-.37-10.14c-.29-7.78-5.27-13.52-12.4-14.29a16.32,16.32,0,0,0-1.71-.09,13.63,13.63,0,0,0-13.59,10.93l-1.73,7.93M368.46,268.89a149.25,149.25,0,0,0,1,21.71l-.71-3.68a47,47,0,0,1-.29-18M397.31,0c-17.8,0-35.08,10.72-38.84,32.55-2,11.79-2.27,24-2.33,36a110.64,110.64,0,0,1-7.47,40.37c-6,15.31-15.19,28.78-23.29,42.9-8.23,14.34-16.69,28.61-24,43.44-9,18.2-10.16,37.34-3.85,56.83,9.88,30.52,19.76,61.05,29.39,91.65,6.6,21,12.62,42.16,19.21,63.15,6.25,19.9,16.65,37.07,33.37,50.18C394.46,468.75,410,474.68,426,474.68c12.58,0,25.4-3.7,38.35-11.17a107.65,107.65,0,0,0,18.57-12.91c18.75-17,37.09-34.42,55.55-51.72,27.83-26.07,53.93-54,84.28-77.37a72.82,72.82,0,0,0,15-16.26c8.4-12.11,10.36-26.25,10.14-40.62-.21-13.9-1.23-27.79-1.47-41.69-.22-13.27,2.06-26,8-38.13,5.12-10.33,9.52-21,12.54-27.74,9.43-24.25,12.61-38.89,12.66-55.24,0-16.68-12.24-29.45-28.75-29.45h-.57q-3.85.08-7.7.07A405.94,405.94,0,0,1,551,62.13c-30.36-7-59.7-17.05-87.43-31.28C448.45,23.13,434,14.15,419.29,5.77a44.65,44.65,0,0,0-22-5.77ZM360.65,116.28a11.15,11.15,0,0,1-.15-2.54c3.39-12.92,7.85-25.4,16.92-35.55,9.25-10.35,20.27-16.58,33.62-16.58a46.28,46.28,0,0,1,7.38.61c7.72,1.25,14.11,5.33,19.64,10.63,5.15,4.94,9.68,10.57,15.07,15.22,4.13,3.56,8.82,7,13.87,8.84a17.1,17.1,0,0,0,5.85,1.1c6.83,0,11.87-4.92,13.17-12.91a4.41,4.41,0,0,1,.49-1c3.46,6.65-.1,15.87-7.69,19.63a24.8,24.8,0,0,1-11.13,2.7c-5.82,0-11.45-2.13-16.8-5.47-4.89-3-9.12-7.19-13.55-11-2.93-2.48-5.67-5.18-8.53-7.73C422.92,77,416.64,74.56,410,74.56a34.18,34.18,0,0,0-13.72,3.17c-11.39,5-18.93,14.21-25.74,24.12-2.7,3.92-5.17,8-7.78,12a28.73,28.73,0,0,1-2.13,2.43ZM548.27,133a29,29,0,0,1-15.11-4.12c-9.66-5.74-12.34-17.84-5.68-25.46a12.85,12.85,0,0,1,1.41-1.07c-2.12,6-1.76,11.24,2.37,15.52a15.63,15.63,0,0,0,11.65,4.78,22.08,22.08,0,0,0,3.77-.33,69.1,69.1,0,0,0,13.24-4c4.92-1.93,9.58-4.54,14.46-6.6a47.81,47.81,0,0,1,18.63-4c17.49,0,32.39,11,38.82,30.16,4.72,14.08,4.19,28.36,1.61,42.77-1.73-8-3.21-16.06-5.23-24-2.71-10.67-7.1-20.51-15.59-28-5.84-5.18-12.19-8-19.11-8a29.37,29.37,0,0,0-10,1.84c-7,2.5-13.79,5.49-20.82,7.84A45.66,45.66,0,0,1,548.27,133Zm-188,28.09a19,19,0,0,1-2.06-.31c.2-.95.09-2.19.66-2.79,12.24-13.08,26-24.09,43-30.44a41.75,41.75,0,0,1,14.86-2.89,43.91,43.91,0,0,1,15.62,3.07c14.09,6,22.83,19,24.95,36.4.84,6.83-.31,13.92-.7,20.88-.05.88-.85,2.34-1.49,2.45a2.86,2.86,0,0,1-.42,0,4.11,4.11,0,0,1-2.71-1.07c-9-9.54-20-15.87-32.07-20.62a100.78,100.78,0,0,0-37.15-7.33,96.3,96.3,0,0,0-22,2.57,2,2,0,0,1-.49.05Zm150.28,43.87c-1.75,0-2.53-1.49-1.55-3.83,2.29-5.48,4.42-11.17,7.64-16.11,8-12.3,19.13-20.38,34.11-22.13a42.15,42.15,0,0,1,4.85-.28,33.29,33.29,0,0,1,21.93,7.83c17.92,15,25.79,35.46,30.87,57.49-7.22-5-13.83-10.31-21.1-14.46a90,90,0,0,0-45-12.31h-1.07c-10,0-19.8.48-29.38,3.59a4.31,4.31,0,0,1-1.29.22ZM364.82,287.68c-9.69-10.46-8.07-30.87,3-43.33,6.3-7.08,19-12.52,28-12.52a12.17,12.17,0,0,1,7.27,1.91c-9.72,3-19.46,4.37-26.07,12.07,25.29,34.48,75.81,59.28,126.53,59.28a142.1,142.1,0,0,0,44.54-6.95c-3.52-12.54-11.94-20.85-23.2-26.93a10.76,10.76,0,0,1,2.5-.28c8.53,0,20.37,8.69,25.44,19a37.78,37.78,0,0,1-10.59,46.5c5-11.49,9.32-22.36,6.52-34.93-5.57,8.62-10.74,16.93-16.22,25C521.4,343,508.48,357.86,491.8,369c-14.86,9.91-31.46,14.58-49.2,14.64h-.16c-14.65,0-26.24-7.29-36-17.56C390.06,348.83,381.2,327.72,376,304.9a147,147,0,0,1-2-54.1c.07-.46.09-.93.23-2.53-10,12.09-12.18,25-9.41,39.41ZM423.94,256c2.57-3.88,5.76-5.86,9-5.86a9.47,9.47,0,0,1,6,2.31c3.44,2.79,6.36,6.21,9.63,9.23,3,2.75,5.86,5.75,9.25,7.91a19.78,19.78,0,0,0,10.71,3.31,21.35,21.35,0,0,0,8.93-2.09,53,53,0,0,1,14.31-4.19,12.92,12.92,0,0,1,1.83-.13c5.55,0,9.42,3.86,10.8,10.22a4.42,4.42,0,0,1-1.43-.47c-3.91-3.33-6.95-4.94-10.25-4.94-2.66,0-5.5,1.05-9.1,3.09-5.83,3.3-11.4,4.94-16.6,4.94-9.12,0-17.12-5-23.49-15-1.28-2-2.53-4.05-4-5.93-2.67-3.44-5.18-5.14-8.14-5.14-2.16,0-4.56.91-7.43,2.71Zm23.84,158a77.52,77.52,0,0,1-18.49-2.32c-24.54-6-41.66-21.32-50.78-45.13,13.26,18.39,30.2,31.76,52.47,37.28a84.48,84.48,0,0,0,20.4,2.51c14.95,0,29.42-4,43.46-11-14.1,12.37-29.9,18.66-47.06,18.66Zm-45.51,32.52a9.59,9.59,0,0,1,9.68-7.78,11.1,11.1,0,0,1,1.28.07c5,.54,8.61,4.58,8.83,10.45-4.11-4.08-6.64-6-9.9-6-2.51,0-5.46,1.13-9.89,3.22Z"/></g></g></g></svg>