<svg xmlns="http://www.w3.org/2000/svg" viewBox="0 0 315.25 495"><defs><style>.cls-1{fill:#4a575f;}.cls-2{font-size:40px;font-family:Helvetica-Bold, Helvetica;font-weight:700;}.cls-2,.cls-4{fill:#bacad3;}.cls-3{letter-spacing:-0.07em;}</style></defs><title>poster_2</title><g id="Layer_2" data-name="Layer 2"><g id="Layer_1-2" data-name="Layer 1"><rect class="cls-1" x="0.35" y="0.35" width="314.31" height="494.31" rx="4.65" ry="4.65"/><path d="M310,.69A4.32,4.32,0,0,1,314.31,5V490a4.32,4.32,0,0,1-4.31,4.31H5A4.32,4.32,0,0,1,.69,490V5A4.32,4.32,0,0,1,5,.69H310M310,0H5A5,5,0,0,0,0,5V490a5,5,0,0,0,5,5H310a5,5,0,0,0,5-5V5a5,5,0,0,0-5-5Z"/><text class="cls-2" transform="translate(41.46 111.4)">NO POSTER <tspan class="cls-3" x="6.3" y="48">AV</tspan><tspan x="55.97" y="48">AILABLE</tspan></text><g id="pVYBKx.tif"><path class="cls-4" d="M98.25,357.15V246.85c.43,0,.37-.4.46-.64a7.38,7.38,0,0,1,4.75-4.75c.24-.09.63,0,.64-.46H214c.07.37.42.25.63.31a7.54,7.54,0,0,1,5.23,5.13c.07.22,0,.55.38.6V357c-.41.16-.37.57-.48.88a7.43,7.43,0,0,1-4,4.44A7.91,7.91,0,0,0,214,363H104.1c0-.43-.4-.37-.64-.46a7.38,7.38,0,0,1-4.75-4.75C98.62,357.55,98.67,357.17,98.25,357.15Zm91.54-108.47h-61v60.9h61Zm0,106.7V317.27h-61v38.11Zm-83.87-91.5h15.27V248.67H105.88Zm91.5-15.24v15.24H212.6V248.64ZM105.9,294.35h15.24V279.11H105.9Zm106.7,0V279.14H197.38v15.24ZM105.9,324.86h15.23V309.65H105.9Zm106.69,0V309.65H197.36v15.24ZM105.9,340.09v15.27h15.22V340.09Zm91.47,0v15.25h15.24V340.1Z"/></g></g></g></svg>